<?xml version="1.0" encoding="utf-8"?><svg viewBox="0 0 800 800" xmlns="http://www.w3.org/2000/svg" xmlns:xlink="http://www.w3.org/1999/xlink"><style>:root>svg{display:none}:root>svg:target{display:block}</style><svg viewBox="0 0 24 24" fill="none" id="arrow" xmlns="http://www.w3.org/2000/svg"><path d="M12 3 7 8m5-5 5 5m-5-5v18"/></svg><svg viewBox="0 0 256 256" preserveAspectRatio="xMidYMid" id="telegram" xmlns="http://www.w3.org/2000/svg"><path d="M128 0C57.307 0 0 57.307 0 128s57.307 128 128 128 128-57.307 128-128S198.693 0 128 0Z" fill="#40B3E0"/><path d="M190.283 73.63 167.42 188.899s-3.197 7.994-11.99 4.157l-52.758-40.448-19.184-9.272-32.294-10.872s-4.956-1.758-5.436-5.595c-.48-3.837 5.596-5.915 5.596-5.915l128.376-50.36s10.552-4.636 10.552 3.038" fill="#FFF"/><path d="M98.618 187.603s-1.54-.144-3.46-6.22c-1.917-6.075-11.67-38.049-11.67-38.049l77.538-49.24s4.477-2.718 4.317 0c0 0 .799.48-1.6 2.718-2.397 2.239-60.91 54.836-60.91 54.836" fill="#D2E5F1"/><path d="m122.901 168.115-20.867 19.026s-1.632 1.238-3.416.462l3.996-35.34" fill="#B5CFE4"/></svg><svg viewBox="0 0 52 52" id="viber" xmlns="http://www.w3.org/2000/svg"><path d="M26 0c14.36 0 26 11.64 26 26S40.36 52 26 52 0 40.36 0 26 11.64 0 26 0Zm1.557 10.59c1.768.221 3.197.647 4.764 1.412 1.542.754 2.529 1.468 3.834 2.766 1.223 1.226 1.902 2.155 2.621 3.597 1.002 2.011 1.573 4.403 1.67 7.035.036.898.01 1.098-.195 1.355-.39.497-1.249.415-1.542-.144-.092-.185-.118-.344-.149-1.062-.051-1.103-.128-1.817-.282-2.669-.607-3.34-2.21-6.008-4.77-7.922-2.132-1.601-4.337-2.381-7.225-2.55-.977-.057-1.146-.093-1.367-.262-.412-.324-.432-1.083-.036-1.437.241-.22.41-.252 1.248-.226.437.015 1.08.067 1.43.108Zm-11.748.555c.18.062.457.205.617.308.976.646 3.695 4.12 4.584 5.855.509.99.678 1.724.519 2.268-.165.585-.437.893-1.655 1.873-.488.395-.946.8-1.017.908-.185.267-.335.79-.335 1.16.006.857.56 2.412 1.29 3.607.566.929 1.578 2.12 2.58 3.033 1.177 1.077 2.215 1.811 3.387 2.391 1.506.75 2.426.94 3.099.626.17-.077.35-.18.406-.226.051-.046.447-.528.879-1.062.832-1.047 1.022-1.216 1.593-1.411.725-.246 1.465-.18 2.21.2.565.293 1.798 1.057 2.595 1.611 1.048.734 3.29 2.561 3.592 2.925.535.657.627 1.499.268 2.427-.38.98-1.86 2.818-2.894 3.603-.935.708-1.598.98-2.472 1.02-.72.037-1.017-.025-1.937-.405-7.216-2.97-12.977-7.404-17.55-13.495-2.39-3.182-4.21-6.481-5.453-9.904-.725-1.996-.76-2.863-.165-3.884.257-.431 1.352-1.499 2.149-2.094 1.325-.985 1.937-1.35 2.425-1.452.334-.072.915-.015 1.285.118Zm12.103 3.166c3.12.457 5.535 1.904 7.118 4.254.889 1.324 1.444 2.879 1.634 4.546.067.611.067 1.725-.005 1.91-.067.174-.283.41-.468.507-.2.103-.627.093-.863-.03-.396-.2-.514-.519-.514-1.38 0-1.33-.345-2.73-.94-3.819a7.805 7.805 0 0 0-2.868-2.981c-1.033-.616-2.56-1.072-3.952-1.185-.504-.041-.782-.144-.972-.365a.934.934 0 0 1-.077-1.16c.267-.415.679-.482 1.907-.297Zm1.094 3.874c1.013.216 1.789.6 2.452 1.222.853.805 1.32 1.78 1.526 3.181.139.913.082 1.273-.241 1.57-.304.277-.864.288-1.203.026-.247-.185-.324-.38-.38-.908-.067-.703-.19-1.196-.401-1.653-.452-.97-1.249-1.472-2.595-1.637-.633-.077-.823-.148-1.028-.39-.375-.446-.232-1.17.288-1.436.195-.098.277-.108.709-.083.267.016.663.062.873.108Z" fill="#7F4DA0" fill-rule="evenodd"/></svg><svg viewBox="0 0 48 48" id="whatsapp" xmlns="http://www.w3.org/2000/svg"><path d="M23.993 0C10.763 0 0 10.765 0 24a23.824 23.824 0 0 0 4.57 14.067l-2.99 8.917 9.224-2.948A23.81 23.81 0 0 0 24.007 48C37.237 48 48 37.234 48 24S37.238 0 24.007 0h-.014Zm-6.7 12.19c-.466-1.114-.818-1.156-1.523-1.185a13.55 13.55 0 0 0-.804-.027c-.918 0-1.877.268-2.455.86-.705.72-2.454 2.398-2.454 5.841s2.51 6.773 2.849 7.239c.353.465 4.895 7.632 11.947 10.553 5.515 2.286 7.152 2.074 8.407 1.806 1.834-.395 4.133-1.75 4.711-3.386.579-1.637.579-3.034.41-3.33-.17-.296-.636-.465-1.34-.818-.706-.353-4.134-2.046-4.783-2.272-.634-.24-1.24-.155-1.72.522-.677.946-1.34 1.905-1.876 2.483-.423.452-1.115.509-1.693.268-.776-.324-2.948-1.086-5.628-3.47-2.074-1.849-3.484-4.148-3.893-4.84-.41-.705-.042-1.114.282-1.495.353-.438.691-.748 1.044-1.157.352-.41.55-.621.776-1.1.24-.466.07-.946-.1-1.3-.168-.352-1.579-3.795-2.157-5.191Z" fill="#67C15E" fill-rule="evenodd"/></svg></svg>